<?xml version="1.0"?>
<svg xmlns="http://www.w3.org/2000/svg" viewBox="0 0 24 24" enable-background="new 0 0 24 24">
    <path style="text-indent:0;text-align:start;line-height:normal;text-transform:none;block-progression:tb;-inkscape-font-specification:Bitstream Vera Sans" d="M 12 2 C 10.9 2 10 2.9 10 4 L 10 5 C 9.4 5 9 5.4 9 6 L 9 9 C 9 9.6 9.4 10 10 10 L 14 10 C 14.6 10 15 9.6 15 9 L 15 6 C 15 5.4 14.6 5 14 5 L 14 4 C 14 2.9 13.1 2 12 2 z M 12 3 C 12.6 3 13 3.4 13 4 L 13 5 L 11 5 L 11 4 C 11 3.4 11.4 3 12 3 z M 4 6 C 3.4777778 6 2.9395305 6.1854695 2.5625 6.5625 C 2.1854695 6.9395305 2 7.4777778 2 8 L 2 19 C 2 19.522222 2.1854695 20.060469 2.5625 20.4375 C 2.9395305 20.814531 3.4777778 21 4 21 L 20 21 C 20.522222 21 21.060469 20.814531 21.4375 20.4375 C 21.814531 20.060469 22 19.522222 22 19 L 22 8 C 22 7.4777778 21.814531 6.9395305 21.4375 6.5625 C 21.060469 6.1854695 20.522222 6 20 6 L 16 6 L 16 8 L 20 8 L 20 19 L 4 19 L 4 8 L 8 8 L 8 6 L 4 6 z" overflow="visible" enable-background="accumulate" font-family="Bitstream Vera Sans"/>
</svg>
