<?xml version="1.0"?>
<svg xmlns="http://www.w3.org/2000/svg" viewBox="0 0 50 50">
    <path style="text-indent:0;text-align:start;line-height:normal;text-transform:none;block-progression:tb;-inkscape-font-specification:Sans" d="M 38 2 L 38 3 L 38 47 L 38 48 L 39 48 L 47 48 L 48 48 L 48 47 L 48 3 L 48 2 L 47 2 L 39 2 L 38 2 z M 40 4 L 46 4 L 46 46 L 40 46 L 40 4 z M 26 13 L 26 48 L 36 48 L 36 13 L 26 13 z M 14 24 L 14 48 L 24 48 L 24 24 L 14 24 z M 2 35 L 2 48 L 12 48 L 12 35 L 2 35 z" overflow="visible" font-family="Sans"/>
</svg>
