<?xml version="1.0"?>
<svg xmlns="http://www.w3.org/2000/svg" width="24" height="24" viewBox="0 0 24 24">
    <path d="M 12 3 C 7.5460317 3 3.398145 4.7087084 0.40625 7.59375 L 1.78125 9.03125 C 4.389355 6.5162916 8.0539683 5 12 5 C 15.946032 5 19.49341 6.4938645 22.21875 9.03125 L 23.59375 7.5625 C 20.51909 4.6998855 16.453968 3 12 3 z M 12 8 C 8.8471264 8 5.9865253 9.215926 3.8125 11.28125 L 5.1875 12.71875 C 7.0134747 10.984074 9.3528736 10 12 10 C 14.624138 10 16.999801 11.090446 18.84375 12.75 L 20.15625 11.25 C 18.000199 9.3095544 15.175862 8 12 8 z M 12 13 C 10.15 13 8.4839252 13.724841 7.21875 14.875 L 8.5625 16.34375 C 9.4973248 15.493909 10.65 15 12 15 C 13.35 15 14.502675 15.493909 15.4375 16.34375 L 16.78125 14.875 C 15.516075 13.724841 13.85 13 12 13 z M 12 18 C 11.5 18 10.99375 18.2 10.59375 18.5 L 12 20 L 13.40625 18.5 C 13.00625 18.2 12.5 18 12 18 z"/>
</svg>
